<?xml version="1.0" encoding="utf-8"?>
<!-- Generator: Adobe Illustrator 24.1.0, SVG Export Plug-In . SVG Version: 6.00 Build 0)  -->
<svg version="1.1" id="Layer_1" xmlns="http://www.w3.org/2000/svg" xmlns:xlink="http://www.w3.org/1999/xlink" x="0px" y="0px"
	 viewBox="0 0 1726 413" style="enable-background:new 0 0 1726 413;" xml:space="preserve">
<style type="text/css">
	.st0{fill:#3C6EB4;}
	.st1{fill:#F42F63;}
	.st2{fill:#FFFFFF;}
	.st3{font-family:'MyriadPro-Regular';}
	.st4{font-size:30px;}
</style>
<g>
	<rect x="33" y="30" class="st0" width="237.7" height="53.8"/>
	<rect x="33" y="83.8" class="st1" width="237.7" height="300.2"/>
</g>
<g>
	<rect x="319.6" y="30" class="st0" width="237.7" height="53.8"/>
	<rect x="319.6" y="83.8" class="st1" width="237.7" height="300.2"/>
</g>
<g>
	<rect x="608.6" y="30" class="st0" width="237.7" height="55.1"/>
	<rect x="608.6" y="85.1" class="st1" width="237.7" height="298.9"/>
</g>
<g>
	<rect x="895.2" y="30" class="st0" width="237.7" height="53.8"/>
	<rect x="895.2" y="83.8" class="st1" width="237.7" height="300.2"/>
</g>
<g>
	<rect x="1176.7" y="30" class="st0" width="237.7" height="53.8"/>
	<rect x="1176.7" y="83.8" class="st1" width="237.7" height="300.2"/>
</g>
<g>
	<rect x="1463.3" y="30" class="st0" width="237.7" height="53.8"/>
	<rect x="1463.3" y="83.8" class="st1" width="237.7" height="300.2"/>
</g>
<text transform="matrix(1 0 0 1 104.0483 69.6226)" class="st2 st3 st4">Nivel 1</text>
<text transform="matrix(1 0 0 1 395.6753 67.9514)" class="st2 st3 st4">Nivel 2</text>
<text transform="matrix(1 0 0 1 684.6753 67.9514)" class="st2 st3 st4">Nivel 3</text>
<text transform="matrix(1 0 0 1 968.6753 67.9514)" class="st2 st3 st4">Nivel 4</text>
<text transform="matrix(1 0 0 1 1250.6753 69.9514)" class="st2 st3 st4">Nivel 5</text>
<text transform="matrix(1 0 0 1 1537.6753 69.9514)" class="st2 st3 st4">Nivel 6</text>
<text transform="matrix(1 0 0 1 56.0776 130.4175)"><tspan x="0" y="0" class="st2 st3 st4">El ciudadano</tspan><tspan x="0" y="36" class="st2 st3 st4">percibe que los</tspan><tspan x="0" y="72" class="st2 st3 st4">indicadores de</tspan><tspan x="0" y="108" class="st2 st3 st4">las dimensiones</tspan><tspan x="0" y="144" class="st2 st3 st4">de la ciudad</tspan><tspan x="0" y="180" class="st2 st3 st4">empeoran</tspan></text>
<text transform="matrix(1 0 0 1 341.0776 130.4175)"><tspan x="0" y="0" class="st2 st3 st4">La ciudadanía</tspan><tspan x="0" y="36" class="st2 st3 st4">no percibe</tspan><tspan x="0" y="72" class="st2 st3 st4">ningún avance</tspan><tspan x="0" y="108" class="st2 st3 st4">en los</tspan><tspan x="0" y="144" class="st2 st3 st4">indicadores de</tspan><tspan x="0" y="180" class="st2 st3 st4">las dimensiones</tspan><tspan x="0" y="216" class="st2 st3 st4">de la ciudad</tspan></text>
<text transform="matrix(1 0 0 1 637.0776 130.4175)"><tspan x="0" y="0" class="st2 st3 st4">La ciudadanía</tspan><tspan x="0" y="36" class="st2 st3 st4">percibe una</tspan><tspan x="0" y="72" class="st2 st3 st4">leve mejora</tspan><tspan x="0" y="108" class="st2 st3 st4">de los</tspan><tspan x="0" y="144" class="st2 st3 st4">indicadores</tspan></text>
<text transform="matrix(1 0 0 1 921.0776 130.4175)"><tspan x="0" y="0" class="st2 st3 st4">La ciudadanía</tspan><tspan x="0" y="36" class="st2 st3 st4">percibe</tspan><tspan x="0" y="72" class="st2 st3 st4">avances, pero</tspan><tspan x="0" y="108" class="st2 st3 st4">no le impactan</tspan><tspan x="0" y="144" class="st2 st3 st4">directamente</tspan><tspan x="0" y="180" class="st2 st3 st4">a su calidad</tspan><tspan x="0" y="216" class="st2 st3 st4">de vida.</tspan></text>
<text transform="matrix(1 0 0 1 1200.0776 130.4175)"><tspan x="0" y="0" class="st2 st3 st4">La ciudadanía</tspan><tspan x="0" y="36" class="st2 st3 st4">percibe una</tspan><tspan x="0" y="72" class="st2 st3 st4">mejora en los</tspan><tspan x="0" y="108" class="st2 st3 st4">indicadores de</tspan><tspan x="0" y="144" class="st2 st3 st4">las dimensiones</tspan><tspan x="0" y="180" class="st2 st3 st4">de la ciudad.</tspan></text>
<text transform="matrix(1 0 0 1 1475.0776 130.4175)"><tspan x="0" y="0" class="st2 st3 st4">La ciudadanía</tspan><tspan x="0" y="36" class="st2 st3 st4">percibe quelos</tspan><tspan x="0" y="72" class="st2 st3 st4">indicadores de</tspan><tspan x="0" y="108" class="st2 st3 st4">de dimensiones</tspan><tspan x="0" y="144" class="st2 st3 st4">de la </tspan><tspan x="0" y="180" class="st2 st3 st4">ciudad mejoran</tspan><tspan x="0" y="216" class="st2 st3 st4">ostensiblemente.</tspan></text>
</svg>
